<?xml version="1.0" encoding="utf-8"?>
<!-- Generator: Adobe Illustrator 26.3.1, SVG Export Plug-In . SVG Version: 6.00 Build 0)  -->
<svg version="1.1" id="Layer_1" xmlns="http://www.w3.org/2000/svg" xmlns:xlink="http://www.w3.org/1999/xlink" x="0px" y="0px"
	 viewBox="0 0 69.3 69.3" style="enable-background:new 0 0 69.3 69.3;" xml:space="preserve">
<style type="text/css">
	.st0{fill:url(#SVGID_1_);}
	.st1{display:none;}
	.st2{display:inline;fill:#FFFFFF;stroke:#000000;stroke-width:0.25;stroke-miterlimit:10;}
</style>
<linearGradient id="SVGID_1_" gradientUnits="userSpaceOnUse" x1="66.5152" y1="1.9985" x2="-0.1039" y2="70.1694">
	<stop  offset="4.705262e-02" style="stop-color:#96895B"/>
	<stop  offset="0.253" style="stop-color:#96895B"/>
	<stop  offset="0.4686" style="stop-color:#96895B"/>
	<stop  offset="0.6481" style="stop-color:#C1B581"/>
	<stop  offset="0.7466" style="stop-color:#DCD19B"/>
	<stop  offset="0.8602" style="stop-color:#FFF9BF"/>
</linearGradient>
<path class="st0" d="M34.6,69.3C15.5,69.3,0,53.7,0,34.6S15.5,0,34.6,0c7,0,13.7,2.1,19.4,6l0.7,0.5l-0.8,0.4
	c-1.6,0.8-2.8,2.3-3,3.9l-0.1,0.7l-0.6-0.4c-4.6-3.1-10-4.7-15.5-4.7c-9.6,0-18,4.8-23.1,12.1c0.5-0.4,1.1-0.6,1.7-0.6
	c0.7,0,1.3,0.3,1.8,0.8c0.8,0.9,1.2,2.1,1.2,3.5c0,1.2,0.2,2.1,0.5,2.9c0.9,1.9,2.4,3.1,4.6,3.5c2,0.3,3.8,1.3,5.2,2.8
	c1.8,1.9,2.9,4.3,3.2,6.9c0.1,1.2,0.6,2.4,1.5,3.3c0.9,0.9,2,1.9,3.1,1.9c0.9,0,1.7-0.7,2.6-2c3.5-5.6,11.4-19.4,11.5-19.5
	c0.9-1.5,2.5-2.3,4.1-2.3h1.8c2.7,0,4.8,2.1,4.8,4.8v24.3c2.5-4.3,3.8-9.1,3.8-14.1c0-6-2-12-5.7-16.9l-0.5-0.6l0.8-0.2
	c1.7-0.4,3.1-1.5,3.7-3.2l0.3-0.8l0.5,0.7c4.6,6,7.2,13.5,7.2,21C69.3,53.7,53.7,69.3,34.6,69.3z M10.7,19.7C8,24,6.4,29.1,6.4,34.6
	C6.4,50.2,19,62.9,34.5,63c6.7,0,13.1-2.3,18.1-6.5V28.4c0-0.9-0.8-1.7-1.7-1.7c-0.6,0-1.2,0.3-1.5,0.8L37.5,47.7
	c-0.8,1.4-2.2,1.9-2.9,1.9c-0.4,0-0.9,0.1-1.3,0.1c-3,0-4.6-1.2-6.9-3.6c-1.5-1.7-2.4-3.7-2.7-5.8c-0.4-2.8-2.5-5.1-5.3-5.9
	c-2.2-0.6-4-1.6-5.4-3.3c-2.5-2.7-3.4-7-2.3-11.3C10.6,19.8,10.6,19.8,10.7,19.7z"/>
<g class="st1">
	<path class="st2" d="M62.3,12c-0.7,1.8-2.2,3.1-4.1,3.5c3.6,4.8,5.8,10.8,5.8,17.2c0,5.8-1.8,11.3-4.8,15.8v-26
		c0-2.4-1.9-4.3-4.3-4.3h-1.8c-1.5,0-2.9,0.8-3.7,2.1c0,0-8,13.8-11.5,19.5c-2.2,3.6-4.4,2.3-6.5,0.2c-0.9-1-1.5-2.3-1.6-3.6
		c-0.3-2.5-1.4-4.8-3.1-6.6c-1.3-1.4-3-2.3-4.9-2.6c-2.2-0.4-4-1.6-5-3.8c-0.4-1-0.5-2.1-0.5-3.1c0-1.2-0.3-2.3-1.1-3.2
		c-1.1-1.2-3.1-0.6-3.5,1c-1,3.9-0.4,8,2.2,10.8c1.4,1.6,3.2,2.6,5.2,3.1c3,0.8,5.3,3.3,5.7,6.3c0.3,2,1.2,3.9,2.6,5.5
		c2.4,2.6,4.1,3.8,7.8,3.4c0.5,0,1.8-0.4,2.5-1.7l11.9-20.1c0.4-0.7,1.1-1.1,1.9-1.1c1.2,0,2.2,1,2.2,2.2v28.3
		c-5,4.3-11.5,6.8-18.6,6.8c-15.7-0.1-28.6-13-28.6-28.9S19.4,4,35.2,4C41,4,46.5,5.8,51,8.8c0.3-1.9,1.6-3.5,3.3-4.3
		c-5.4-3.7-12-5.9-19.1-5.9C16.4-1.4,1.1,13.9,1.1,32.7c0,18.9,15.3,34.2,34.1,34.2s34.2-15.3,34.2-34.2
		C69.4,24.9,66.7,17.7,62.3,12z"/>
</g>
</svg>
