<?xml version="1.0" encoding="utf-8"?>
<!-- Generator: Adobe Illustrator 26.3.1, SVG Export Plug-In . SVG Version: 6.00 Build 0)  -->
<svg version="1.1" id="Layer_1" xmlns="http://www.w3.org/2000/svg" xmlns:xlink="http://www.w3.org/1999/xlink" x="0px" y="0px"
	 viewBox="0 0 68.3 68.3" style="enable-background:new 0 0 68.3 68.3;" xml:space="preserve">
<style type="text/css">
	.st0{fill:#FFFFFF;}
</style>
<g>
	<path class="st0" d="M61.2,13.4c-0.7,1.8-2.2,3.1-4.1,3.5c3.6,4.8,5.8,10.8,5.8,17.2c0,5.8-1.8,11.3-4.8,15.8v-26
		c0-2.4-1.9-4.3-4.3-4.3H52c-1.5,0-2.9,0.8-3.7,2.1c0,0-8,13.8-11.5,19.5c-2.2,3.6-4.4,2.3-6.5,0.2c-0.9-1-1.5-2.3-1.6-3.6
		c-0.3-2.5-1.4-4.8-3.1-6.6c-1.3-1.4-3-2.3-4.9-2.6c-2.2-0.4-4-1.6-5-3.8c-0.4-1-0.5-2.1-0.5-3.1c0-1.2-0.3-2.3-1.1-3.2
		c-1.1-1.2-3.1-0.6-3.5,1c-1,3.9-0.4,8,2.2,10.8c1.4,1.6,3.2,2.6,5.2,3.1c3,0.8,5.3,3.3,5.7,6.3c0.3,2,1.2,3.9,2.6,5.5
		c2.4,2.6,4.1,3.8,7.8,3.4c0.5,0,1.8-0.4,2.5-1.7l11.9-20.1c0.4-0.7,1.1-1.1,1.9-1.1c1.2,0,2.2,1,2.2,2.2v28.3
		C47.6,60.5,41.1,63,34,63C18.3,62.9,5.4,50,5.4,34.1S18.3,5.4,34.1,5.4c5.8,0,11.3,1.8,15.8,4.8c0.3-1.9,1.6-3.5,3.3-4.3
		C47.8,2.2,41.2,0,34.1,0C15.3,0,0,15.3,0,34.1C0,53,15.3,68.3,34.1,68.3S68.3,53,68.3,34.1C68.3,26.3,65.6,19.1,61.2,13.4z"/>
</g>
</svg>
